<?xml version="1.0" encoding="UTF-8"?>
<!DOCTYPE svg PUBLIC "-//W3C//DTD SVG 1.1//EN" "http://www.w3.org/Graphics/SVG/1.1/DTD/svg11.dtd">
<svg xmlns="http://www.w3.org/2000/svg" version="1.1" width="640px" height="640px" style="shape-rendering:geometricPrecision; text-rendering:geometricPrecision; image-rendering:optimizeQuality; fill-rule:evenodd; clip-rule:evenodd" xmlns:xlink="http://www.w3.org/1999/xlink">
<g><path style="opacity:1" fill="#1c8adb" d="M 271.5,-0.5 C 274.5,-0.5 277.5,-0.5 280.5,-0.5C 283.5,0.833333 286.5,0.833333 289.5,-0.5C 309.5,-0.5 329.5,-0.5 349.5,-0.5C 352.5,0.833333 355.5,0.833333 358.5,-0.5C 361.5,-0.5 364.5,-0.5 367.5,-0.5C 375.384,1.24714 383.384,3.08048 391.5,5C 385.136,5.98118 385.469,6.48118 392.5,6.5C 402.153,6.91306 411.486,9.2464 420.5,13.5C 416.5,13.8333 416.5,14.1667 420.5,14.5C 423.692,16.7296 427.192,17.3962 431,16.5C 434.818,17.7056 438.318,19.3723 441.5,21.5C 438.833,21.8333 438.833,22.1667 441.5,22.5C 443.321,23.1174 445.321,23.284 447.5,23C 448.833,23.6667 450.167,24.3333 451.5,25C 450.833,25.3333 450.167,25.6667 449.5,26C 453.167,27.8333 456.833,29.6667 460.5,31.5C 463.151,30.2108 465.484,30.7108 467.5,33C 466.833,33.3333 466.167,33.6667 465.5,34C 468.018,35.9638 470.684,36.6305 473.5,36C 473.057,37.5185 473.724,38.6852 475.5,39.5C 478.635,38.3999 481.302,39.2332 483.5,42C 482.167,42.6667 482.167,43.3333 483.5,44C 485.078,45.0945 486.745,45.9278 488.5,46.5C 489.313,47.6527 490.313,47.6527 491.5,46.5C 492.522,46.8555 493.189,47.5222 493.5,48.5C 492.167,48.8333 492.167,49.1667 493.5,49.5C 493.5,50.1667 493.833,50.5 494.5,50.5C 494.842,51.3382 495.508,51.6716 496.5,51.5C 496.5,52.1667 496.833,52.5 497.5,52.5C 498.899,53.8897 500.566,54.8897 502.5,55.5C 502.5,56.1667 502.833,56.5 503.5,56.5C 504.172,57.2674 505.005,57.9341 506,58.5C 507.871,57.3322 509.371,57.8322 510.5,60C 510.167,60.3333 509.833,60.6667 509.5,61C 510.846,62.6692 512.513,63.8358 514.5,64.5C 514.5,65.1667 514.833,65.5 515.5,65.5C 516.795,66.4884 518.128,67.4884 519.5,68.5C 519.5,69.1667 519.833,69.5 520.5,69.5C 522.125,71.7081 524.125,72.5414 526.5,72C 527.782,74.6581 529.615,77.1581 532,79.5C 532.718,78.5494 533.551,78.3828 534.5,79C 536.167,80.6667 537.833,82.3333 539.5,84C 539.167,84.3333 538.833,84.6667 538.5,85C 545.335,92.5336 552.502,99.0336 560,104.5C 559.377,106.985 560.377,108.985 563,110.5C 563.333,110.167 563.667,109.833 564,109.5C 566.237,111.647 568.237,113.98 570,116.5C 570.617,117.449 570.451,118.282 569.5,119C 571.184,120.74 573.018,121.906 575,122.5C 574.021,124.279 574.354,125.945 576,127.5C 577.667,128.5 579.333,129.5 581,130.5C 598.485,155.102 612.819,182.102 624,211.5C 624.576,213.377 624.409,215.211 623.5,217C 624,218.5 624.5,220 625,221.5C 625.333,220.5 625.667,219.5 626,218.5C 630.092,227.851 632.092,237.517 632,247.5C 632.667,252.833 633.333,252.833 634,247.5C 635.919,255.612 637.752,263.612 639.5,271.5C 639.5,274.833 639.5,278.167 639.5,281.5C 638.167,284.167 638.167,286.833 639.5,289.5C 639.5,309.5 639.5,329.5 639.5,349.5C 638.167,352.167 638.167,354.833 639.5,357.5C 639.5,360.833 639.5,364.167 639.5,367.5C 637.752,375.388 635.919,383.388 634,391.5C 633.333,386.167 632.667,386.167 632,391.5C 632.201,401.697 630.034,411.364 625.5,420.5C 625.167,416.5 624.833,416.5 624.5,420.5C 623.874,428.06 621.541,435.393 617.5,442.5C 612.687,454.793 606.687,466.793 599.5,478.5C 599.167,477.167 598.833,477.167 598.5,478.5C 597.167,479.167 597.167,479.833 598.5,480.5C 593.003,491.321 586.336,501.321 578.5,510.5C 578.167,509.167 577.833,509.167 577.5,510.5C 576.833,510.5 576.5,510.833 576.5,511.5C 575.662,511.842 575.328,512.508 575.5,513.5C 574.167,513.833 574.167,514.167 575.5,514.5C 575.262,516.404 574.262,517.738 572.5,518.5C 572.167,517.167 571.833,517.167 571.5,518.5C 570.833,518.5 570.5,518.833 570.5,519.5C 569.167,519.833 569.167,520.167 570.5,520.5C 568.889,524.051 566.556,527.051 563.5,529.5C 563.167,528.167 562.833,528.167 562.5,529.5C 561.833,529.5 561.5,529.833 561.5,530.5C 560.833,530.5 560.5,530.833 560.5,531.5C 559.167,531.833 559.167,532.167 560.5,532.5C 558.906,535.764 556.573,538.431 553.5,540.5C 553.167,539.167 552.833,539.167 552.5,540.5C 551.833,540.5 551.5,540.833 551.5,541.5C 550.833,541.5 550.5,541.833 550.5,542.5C 549.833,542.5 549.5,542.833 549.5,543.5C 548.833,543.5 548.5,543.833 548.5,544.5C 547.833,544.5 547.5,544.833 547.5,545.5C 546.833,545.5 546.5,545.833 546.5,546.5C 545.833,546.5 545.5,546.833 545.5,547.5C 544.833,547.5 544.5,547.833 544.5,548.5C 543.833,548.5 543.5,548.833 543.5,549.5C 542.833,549.5 542.5,549.833 542.5,550.5C 541.833,550.5 541.5,550.833 541.5,551.5C 540.833,551.5 540.5,551.833 540.5,552.5C 539.833,552.5 539.5,552.833 539.5,553.5C 538.167,553.833 538.167,554.167 539.5,554.5C 537.761,557.243 535.427,559.243 532.5,560.5C 532.167,559.167 531.833,559.167 531.5,560.5C 530.833,560.5 530.5,560.833 530.5,561.5C 529.833,561.5 529.5,561.833 529.5,562.5C 528.167,562.833 528.167,563.167 529.5,563.5C 528.415,565.587 526.749,566.92 524.5,567.5C 524.167,566.167 523.833,566.167 523.5,567.5C 522.833,567.5 522.5,567.833 522.5,568.5C 521.508,568.328 520.842,568.662 520.5,569.5C 519.833,569.5 519.5,569.833 519.5,570.5C 518.833,570.5 518.5,570.833 518.5,571.5C 517.833,571.5 517.5,571.833 517.5,572.5C 516.508,572.328 515.842,572.662 515.5,573.5C 514.833,573.5 514.5,573.833 514.5,574.5C 513.833,574.5 513.5,574.833 513.5,575.5C 512.508,575.328 511.842,575.662 511.5,576.5C 510.833,576.5 510.5,576.833 510.5,577.5C 509.167,577.833 509.167,578.167 510.5,578.5C 509.738,580.262 508.404,581.262 506.5,581.5C 506.167,580.167 505.833,580.167 505.5,581.5C 504.508,581.328 503.842,581.662 503.5,582.5C 502.833,582.5 502.5,582.833 502.5,583.5C 501.508,583.328 500.842,583.662 500.5,584.5C 499.833,584.5 499.5,584.833 499.5,585.5C 498.508,585.328 497.842,585.662 497.5,586.5C 496.833,586.5 496.5,586.833 496.5,587.5C 495.508,587.328 494.842,587.662 494.5,588.5C 493.833,588.5 493.5,588.833 493.5,589.5C 492.167,589.833 492.167,590.167 493.5,590.5C 493.189,591.478 492.522,592.145 491.5,592.5C 490.313,591.347 489.313,591.347 488.5,592.5C 487.508,592.328 486.842,592.662 486.5,593.5C 485.833,593.5 485.5,593.833 485.5,594.5C 484.508,594.328 483.842,594.662 483.5,595.5C 482.167,595.833 482.167,596.167 483.5,596.5C 481.66,598.669 479.326,600.002 476.5,600.5C 475.833,599.167 475.167,599.167 474.5,600.5C 473.167,600.833 473.167,601.167 474.5,601.5C 474.027,602.906 473.027,603.573 471.5,603.5C 470.833,602.167 470.167,602.167 469.5,603.5C 468.508,603.328 467.842,603.662 467.5,604.5C 464.833,604.833 464.833,605.167 467.5,605.5C 466.089,607.539 464.089,608.539 461.5,608.5C 460.833,607.167 460.167,607.167 459.5,608.5C 458.508,608.328 457.842,608.662 457.5,609.5C 456.508,609.328 455.842,609.662 455.5,610.5C 454.508,610.328 453.842,610.662 453.5,611.5C 452.508,611.328 451.842,611.662 451.5,612.5C 448.833,612.833 448.833,613.167 451.5,613.5C 449.954,614.86 448.12,615.86 446,616.5C 444.323,615.392 442.823,615.392 441.5,616.5C 438.833,616.833 438.833,617.167 441.5,617.5C 437.889,619.931 433.889,621.597 429.5,622.5C 428.5,621.167 427.5,621.167 426.5,622.5C 425.209,622.263 424.209,622.596 423.5,623.5C 422.209,623.263 421.209,623.596 420.5,624.5C 416.5,624.833 416.5,625.167 420.5,625.5C 411.486,629.754 402.153,632.087 392.5,632.5C 385.469,632.519 385.136,633.019 391.5,634C 383.384,635.92 375.384,637.753 367.5,639.5C 364.5,639.5 361.5,639.5 358.5,639.5C 355.5,638.167 352.5,638.167 349.5,639.5C 329.5,639.5 309.5,639.5 289.5,639.5C 287.735,638.539 285.735,638.205 283.5,638.5C 282.432,637.566 281.099,637.232 279.5,637.5C 277.5,637.5 275.5,637.5 273.5,637.5C 271.735,636.539 269.735,636.205 267.5,636.5C 266.791,635.596 265.791,635.263 264.5,635.5C 268.5,631.167 272.5,626.833 276.5,622.5C 288.167,611.5 299.5,600.167 310.5,588.5C 320.5,579.167 330.167,569.5 339.5,559.5C 348.5,551.167 357.167,542.5 365.5,533.5C 385.5,514.167 405.167,494.5 424.5,474.5C 434.735,467.471 438.735,457.804 436.5,445.5C 444.472,437.193 452.472,428.86 460.5,420.5C 461.75,420.423 462.583,419.756 463,418.5C 474.822,374.877 486.489,331.21 498,287.5C 498.499,282.177 498.666,276.844 498.5,271.5C 406.5,271.5 314.5,271.5 222.5,271.5C 222.5,252.833 222.5,234.167 222.5,215.5C 195.167,215.5 167.833,215.5 140.5,215.5C 125.833,229.5 111.5,243.833 97.5,258.5C 87.8333,267.5 78.5,276.833 69.5,286.5C 56.8333,298.5 44.5,310.833 32.5,323.5C 22.5,332.833 12.8333,342.5 3.5,352.5C 3.63195,355.325 3.29861,358.325 2.5,361.5C 5.13596,366.656 5.80263,371.989 4.5,377.5C 4.16667,377.5 3.83333,377.5 3.5,377.5C 3.5,377.167 3.5,376.833 3.5,376.5C 3.5,375.167 3.5,373.833 3.5,372.5C 3.5,371.833 3.16667,371.5 2.5,371.5C 2.5,369.833 2.5,368.167 2.5,366.5C 2.5,365.833 2.16667,365.5 1.5,365.5C 1.5,363.5 1.5,361.5 1.5,359.5C 1.76781,357.901 1.43448,356.568 0.5,355.5C 0.794717,353.265 0.461384,351.265 -0.5,349.5C -0.5,329.5 -0.5,309.5 -0.5,289.5C 0.833333,286.833 0.833333,284.167 -0.5,281.5C -0.5,278.167 -0.5,274.833 -0.5,271.5C 1.24799,263.612 3.08133,255.612 5,247.5C 5.66667,252.833 6.33333,252.833 7,247.5C 6.90758,237.517 8.90758,227.851 13,218.5C 13.3333,219.5 13.6667,220.5 14,221.5C 14.5228,212.749 17.0228,204.415 21.5,196.5C 26.3659,184.426 32.1993,172.426 39,160.5C 40.1313,161.604 40.9646,161.271 41.5,159.5C 40.6744,158.549 40.5078,157.549 41,156.5C 46.2733,147.563 51.94,138.897 58,130.5C 59.6667,129.5 61.3333,128.5 63,127.5C 64.6458,125.945 64.9791,124.279 64,122.5C 64.8525,120.875 65.8525,120.542 67,121.5C 67.7397,118.382 69.4064,115.382 72,112.5C 74.6581,111.218 77.1581,109.385 79.5,107C 78.5494,106.282 78.3828,105.449 79,104.5C 86.4979,99.0336 93.6646,92.5336 100.5,85C 100.167,84.6667 99.8333,84.3333 99.5,84C 101.167,82.3333 102.833,80.6667 104.5,79C 105.449,78.3828 106.282,78.5494 107,79.5C 109.385,77.1581 111.218,74.6581 112.5,72C 114.875,72.5414 116.875,71.7081 118.5,69.5C 119.167,69.5 119.5,69.1667 119.5,68.5C 120.872,67.4884 122.205,66.4884 123.5,65.5C 124.167,65.5 124.5,65.1667 124.5,64.5C 126.487,63.8358 128.154,62.6692 129.5,61C 128.542,59.8525 128.875,58.8525 130.5,58C 131.449,57.3828 132.282,57.5494 133,58.5C 133.995,57.9341 134.828,57.2674 135.5,56.5C 136.167,56.5 136.5,56.1667 136.5,55.5C 138.434,54.8897 140.101,53.8897 141.5,52.5C 142.167,52.5 142.5,52.1667 142.5,51.5C 143.492,51.6716 144.158,51.3382 144.5,50.5C 145.167,50.5 145.5,50.1667 145.5,49.5C 146.833,49.1667 146.833,48.8333 145.5,48.5C 146.37,46.4012 147.703,46.0679 149.5,47.5C 151.63,46.5328 153.63,45.3662 155.5,44C 156.833,43.3333 156.833,42.6667 155.5,42C 157.698,39.2332 160.365,38.3999 163.5,39.5C 165.276,38.6852 165.943,37.5185 165.5,36C 168.316,36.6305 170.982,35.9638 173.5,34C 171.699,33.6827 171.366,33.016 172.5,32C 174.425,30.4052 176.425,30.2385 178.5,31.5C 182.167,29.6667 185.833,27.8333 189.5,26C 188.833,25.6667 188.167,25.3333 187.5,25C 188.833,24.3333 190.167,23.6667 191.5,23C 193.5,23 195.5,23 197.5,23C 200.167,22.3333 200.167,21.6667 197.5,21C 198.833,20.3333 200.167,19.6667 201.5,19C 208.257,18.4289 214.923,16.7622 221.5,14C 220.5,13.6667 219.5,13.3333 218.5,13C 227.727,9.18823 237.061,7.02157 246.5,6.5C 253.531,6.48118 253.864,5.98118 247.5,5C 255.616,3.08048 263.616,1.24714 271.5,-0.5 Z"/></g>
<g><path style="opacity:0.008" fill="#4da1ff" d="M 246.5,6.5 C 245.448,6.64945 244.448,6.48278 243.5,6C 244.749,5.25988 245.749,5.42654 246.5,6.5 Z"/></g>
<g><path style="opacity:0.008" fill="#4da1ff" d="M 392.5,6.5 C 393.251,5.42654 394.251,5.25988 395.5,6C 394.552,6.48278 393.552,6.64945 392.5,6.5 Z"/></g>
<g><path style="opacity:0.008" fill="#1effbd" d="M 420.5,14.5 C 420.5,14.1667 420.5,13.8333 420.5,13.5C 423.167,13.8333 423.167,14.1667 420.5,14.5 Z"/></g>
<g><path style="opacity:0.008" fill="#25a2a2" d="M 441.5,22.5 C 441.5,22.1667 441.5,21.8333 441.5,21.5C 444.167,21.8333 444.167,22.1667 441.5,22.5 Z"/></g>
<g><path style="opacity:0.008" fill="#009bff" d="M 488.5,45.5 C 489.833,46.1667 489.833,46.1667 488.5,45.5 Z"/></g>
<g><path style="opacity:0.012" fill="#10caff" d="M 145.5,48.5 C 145.5,48.8333 145.5,49.1667 145.5,49.5C 144.833,49.5 144.5,49.8333 144.5,50.5C 143.833,50.5 143.167,50.5 142.5,50.5C 142.973,49.0937 143.973,48.427 145.5,48.5 Z"/></g>
<g><path style="opacity:0.012" fill="#0fcfff" d="M 493.5,49.5 C 493.5,49.1667 493.5,48.8333 493.5,48.5C 495.027,48.427 496.027,49.0937 496.5,50.5C 495.833,50.5 495.167,50.5 494.5,50.5C 493.833,50.5 493.5,50.1667 493.5,49.5 Z"/></g>
<g><path style="opacity:0.02" fill="#1cb0fc" d="M 142.5,50.5 C 142.5,50.8333 142.5,51.1667 142.5,51.5C 141.833,51.5 141.5,51.8333 141.5,52.5C 139.207,51.6987 139.54,51.032 142.5,50.5 Z"/></g>
<g><path style="opacity:0.008" fill="#1faefd" d="M 496.5,51.5 C 496.5,51.1667 496.5,50.8333 496.5,50.5C 499.46,51.032 499.793,51.6987 497.5,52.5C 496.833,52.5 496.5,52.1667 496.5,51.5 Z"/></g>
<g><path style="opacity:0.008" fill="#1e7fff" d="M 136.5,55.5 C 135.833,55.5 135.5,55.8333 135.5,56.5C 133.025,56.2533 133.025,55.5866 135.5,54.5C 136.107,54.6236 136.44,54.9569 136.5,55.5 Z"/></g>
<g><path style="opacity:0.008" fill="#2579ff" d="M 502.5,55.5 C 503.497,54.2875 504.497,54.4542 505.5,56C 504.906,56.4643 504.239,56.631 503.5,56.5C 502.833,56.5 502.5,56.1667 502.5,55.5 Z"/></g>
<g><path style="opacity:0.006" fill="#37caf7" d="M 124.5,64.5 C 123.833,64.5 123.5,64.8333 123.5,65.5C 121.025,65.2533 121.025,64.5866 123.5,63.5C 124.107,63.6236 124.44,63.9569 124.5,64.5 Z"/></g>
<g><path style="opacity:0.006" fill="#37caf7" d="M 514.5,64.5 C 515.497,63.2875 516.497,63.4542 517.5,65C 516.906,65.4643 516.239,65.631 515.5,65.5C 514.833,65.5 514.5,65.1667 514.5,64.5 Z"/></g>
<g><path style="opacity:0.004" fill="#3f72ff" d="M 519.5,68.5 C 520.497,67.2875 521.497,67.4542 522.5,69C 521.906,69.4643 521.239,69.631 520.5,69.5C 519.833,69.5 519.5,69.1667 519.5,68.5 Z"/></g>
<g><path style="opacity:0.012" fill="#397dff" d="M 119.5,68.5 C 118.833,68.5 118.5,68.8333 118.5,69.5C 116.025,69.2533 116.025,68.5866 118.5,67.5C 119.107,67.6236 119.44,67.9569 119.5,68.5 Z"/></g>
<g><path style="opacity:1" fill="#f6fdfc" d="M 140.5,215.5 C 167.833,215.5 195.167,215.5 222.5,215.5C 222.5,234.167 222.5,252.833 222.5,271.5C 314.5,271.5 406.5,271.5 498.5,271.5C 498.666,276.844 498.499,282.177 498,287.5C 486.489,331.21 474.822,374.877 463,418.5C 462.583,419.756 461.75,420.423 460.5,420.5C 388.167,420.5 315.833,420.5 243.5,420.5C 243.371,418.784 243.038,417.117 242.5,415.5C 237.788,397.308 232.788,379.308 227.5,361.5C 221.795,336.678 215.461,312.012 208.5,287.5C 208.5,268.167 208.5,248.833 208.5,229.5C 185.833,229.5 163.167,229.5 140.5,229.5C 140.5,224.833 140.5,220.167 140.5,215.5 Z"/></g>
<g><path style="opacity:1" fill="#16598a" d="M 140.5,215.5 C 140.5,220.167 140.5,224.833 140.5,229.5C 162.66,230.497 184.994,230.831 207.5,230.5C 207.17,249.674 207.503,268.674 208.5,287.5C 215.461,312.012 221.795,336.678 227.5,361.5C 225.335,358.095 223.835,353.762 223,348.5C 222.667,349.833 222.333,351.167 222,352.5C 185.28,316.78 148.947,280.78 113,244.5C 107.969,250.068 102.803,254.735 97.5,258.5C 111.5,243.833 125.833,229.5 140.5,215.5 Z"/></g>
<g><path style="opacity:1" fill="#6692af" d="M 140.5,229.5 C 163.167,229.5 185.833,229.5 208.5,229.5C 208.5,248.833 208.5,268.167 208.5,287.5C 207.503,268.674 207.17,249.674 207.5,230.5C 184.994,230.831 162.66,230.497 140.5,229.5 Z"/></g>
<g><path style="opacity:0.008" fill="#3593b9" d="M 5.5,243.5 C 6.57346,244.251 6.74012,245.251 6,246.5C 5.51722,245.552 5.35055,244.552 5.5,243.5 Z"/></g>
<g><path style="opacity:0.008" fill="#3593b9" d="M 632.5,243.5 C 633.573,244.251 633.74,245.251 633,246.5C 632.517,245.552 632.351,244.552 632.5,243.5 Z"/></g>
<g><path style="opacity:1" fill="#176196" d="M 227.5,361.5 C 232.788,379.308 237.788,397.308 242.5,415.5C 241.249,417.725 241.582,419.891 243.5,422C 267.5,422.333 291.5,422.667 315.5,423C 308.5,423.333 301.5,423.667 294.5,424C 298.619,424.143 302.619,424.81 306.5,426C 302.861,425.722 299.194,425.722 295.5,426C 291.965,426.663 288.965,428.163 286.5,430.5C 282.097,434.415 278.597,439.081 276,444.5C 272.932,463.413 280.766,474.08 299.5,476.5C 303.741,476.747 307.741,475.913 311.5,474C 314.665,471.665 317.665,469.165 320.5,466.5C 322.725,463.738 324.725,460.738 326.5,457.5C 325.379,454.804 325.379,452.137 326.5,449.5C 327.314,451.766 327.814,454.1 328,456.5C 346.559,475.728 365.726,494.228 385.5,512C 377.942,519.031 371.275,526.198 365.5,533.5C 357.167,542.5 348.5,551.167 339.5,559.5C 342.563,554.928 346.23,550.761 350.5,547C 261.71,459.389 172.043,371.222 81.5,282.5C 80.4164,281.335 79.5831,280.002 79,278.5C 76,281.5 73,284.5 70,287.5C 69.6012,287.272 69.4346,286.938 69.5,286.5C 78.5,276.833 87.8333,267.5 97.5,258.5C 102.803,254.735 107.969,250.068 113,244.5C 148.947,280.78 185.28,316.78 222,352.5C 222.333,351.167 222.667,349.833 223,348.5C 223.835,353.762 225.335,358.095 227.5,361.5 Z"/></g>
<g><path style="opacity:1" fill="#165181" d="M 244.5,305.5 C 244.443,304.391 244.11,303.391 243.5,302.5C 241.751,300.072 240.418,297.406 239.5,294.5C 240.689,291.957 242.022,289.457 243.5,287C 248.533,286.171 253.533,286.338 258.5,287.5C 259.833,289.833 261.167,292.167 262.5,294.5C 258.919,301.33 255.086,307.997 251,314.5C 248.812,311.433 246.645,308.433 244.5,305.5 Z"/></g>
<g><path style="opacity:1" fill="#165282" d="M 466.5,301.5 C 463.193,305.426 460.36,309.76 458,314.5C 454.489,308.805 450.989,303.139 447.5,297.5C 446.468,293.597 447.468,290.097 450.5,287C 455.5,286.333 460.5,286.333 465.5,287C 466.961,289.421 468.294,291.921 469.5,294.5C 468.212,296.739 467.212,299.072 466.5,301.5 Z"/></g>
<g><path style="opacity:1" fill="#124679" d="M 479.5,286.5 C 480.5,286.5 481.5,286.5 482.5,286.5C 481.65,291.232 480.484,295.899 479,300.5C 477.634,298.63 476.467,296.63 475.5,294.5C 477.372,292.09 478.705,289.423 479.5,286.5 Z"/></g>
<g><path style="opacity:1" fill="#175283" d="M 243.5,312.5 C 244.701,315.068 246.034,317.568 247.5,320C 244.553,326.062 241.22,331.895 237.5,337.5C 234.989,328.455 232.322,319.455 229.5,310.5C 230.763,308.971 231.763,307.305 232.5,305.5C 233.657,303.862 234.824,302.196 236,300.5C 238.761,304.36 241.261,308.36 243.5,312.5 Z"/></g>
<g><path style="opacity:1" fill="#1869a4" d="M 339.5,559.5 C 330.167,569.5 320.5,579.167 310.5,588.5C 310.062,588.565 309.728,588.399 309.5,588C 312.167,585.333 314.833,582.667 317.5,580C 313.833,577 310.167,574 306.5,571C 219.83,485.864 133.83,400.864 48.5,316C 47.0337,315.365 45.7003,314.531 44.5,313.5C 40.5151,316.984 36.6818,320.651 33,324.5C 32.6012,324.272 32.4346,323.938 32.5,323.5C 44.5,310.833 56.8333,298.5 69.5,286.5C 69.4346,286.938 69.6012,287.272 70,287.5C 73,284.5 76,281.5 79,278.5C 79.5831,280.002 80.4164,281.335 81.5,282.5C 172.043,371.222 261.71,459.389 350.5,547C 346.23,550.761 342.563,554.928 339.5,559.5 Z"/></g>
<g><path style="opacity:1" fill="#175282" d="M 465.5,352.5 C 464.18,355.14 462.847,357.807 461.5,360.5C 460.356,362.1 459.189,363.767 458,365.5C 452.958,359.078 449.291,352.078 447,344.5C 450.414,338.003 454.081,331.67 458,325.5C 461,330.833 464,336.167 467,341.5C 467.256,345.246 466.756,348.913 465.5,352.5 Z"/></g>
<g><path style="opacity:1" fill="#175586" d="M 249.5,364.5 C 246.818,359.798 244.151,355.131 241.5,350.5C 240.091,348.695 239.591,346.695 240,344.5C 243.414,338.003 247.081,331.67 251,325.5C 255.033,332.038 258.866,338.704 262.5,345.5C 259,351.833 255.5,358.167 252,364.5C 251.23,365.598 250.397,365.598 249.5,364.5 Z"/></g>
<g><path style="opacity:1" fill="#1970b0" d="M 310.5,588.5 C 299.5,600.167 288.167,611.5 276.5,622.5C 276.062,622.565 275.728,622.399 275.5,622C 278.167,619.333 280.833,616.667 283.5,614C 269.295,600.961 255.628,587.461 242.5,573.5C 203.655,536.155 165.322,498.321 127.5,460C 124.057,456.771 120.39,453.771 116.5,451C 82.7814,416.323 48.2814,382.156 13,348.5C 12.6667,347.5 12.3333,346.5 12,345.5C 9.33333,348.167 6.66667,350.833 4,353.5C 3.60123,353.272 3.43456,352.938 3.5,352.5C 12.8333,342.5 22.5,332.833 32.5,323.5C 32.4346,323.938 32.6012,324.272 33,324.5C 36.6818,320.651 40.5151,316.984 44.5,313.5C 45.7003,314.531 47.0337,315.365 48.5,316C 133.83,400.864 219.83,485.864 306.5,571C 310.167,574 313.833,577 317.5,580C 314.833,582.667 312.167,585.333 309.5,588C 309.728,588.399 310.062,588.565 310.5,588.5 Z"/></g>
<g><path style="opacity:1" fill="#eff6f7" d="M 301.5,288.5 C 300.513,290.473 299.513,292.473 298.5,294.5C 302.081,301.33 305.914,307.997 310,314.5C 313.667,308.5 317.333,302.5 321,296.5C 320.993,293.137 319.827,290.137 317.5,287.5C 312.544,286.506 307.544,286.173 302.5,286.5C 304.571,285.191 307.071,284.525 310,284.5C 315.08,283.38 318.746,285.046 321,289.5C 322.188,288.437 322.688,287.103 322.5,285.5C 324.604,285.201 326.604,285.534 328.5,286.5C 327.572,287.768 327.405,289.101 328,290.5C 329.292,288.751 330.458,286.918 331.5,285C 336.833,284.333 342.167,284.333 347.5,285C 349.407,288.065 351.074,291.232 352.5,294.5C 352.013,297.853 350.346,300.187 347.5,301.5C 348.806,299.184 350.139,296.85 351.5,294.5C 349.914,292.33 348.58,289.996 347.5,287.5C 342.167,286.167 336.833,286.167 331.5,287.5C 330.42,289.996 329.086,292.33 327.5,294.5C 331.5,301.167 335.5,307.833 339.5,314.5C 342.19,310.435 344.857,306.435 347.5,302.5C 347.67,303.822 347.337,304.989 346.5,306C 347.085,307.302 347.751,308.469 348.5,309.5C 346.766,313.3 344.766,316.966 342.5,320.5C 346.5,327.167 350.5,333.833 354.5,340.5C 358.687,334.126 362.354,327.46 365.5,320.5C 362.358,313.549 358.691,306.883 354.5,300.5C 352.479,303.235 350.479,305.901 348.5,308.5C 349.008,305.148 350.342,302.148 352.5,299.5C 353.689,298.571 355.022,298.238 356.5,298.5C 356.337,296.143 356.503,293.81 357,291.5C 357.422,289.574 358.589,288.574 360.5,288.5C 360.5,287.5 360.5,286.5 360.5,285.5C 366.5,285.5 372.5,285.5 378.5,285.5C 380.592,293.091 381.592,293.091 381.5,285.5C 383.167,285.5 384.833,285.5 386.5,285.5C 386.34,287.199 386.506,288.866 387,290.5C 388.292,288.751 389.458,286.918 390.5,285C 395.833,284.333 401.167,284.333 406.5,285C 408.451,286.734 409.451,288.901 409.5,291.5C 408.035,290.594 407.035,289.261 406.5,287.5C 401.533,286.338 396.533,286.171 391.5,287C 389.524,289.147 388.191,291.647 387.5,294.5C 390.642,301.451 394.309,308.117 398.5,314.5C 402.898,308.095 406.898,301.429 410.5,294.5C 410.137,293.817 409.804,293.15 409.5,292.5C 412.106,290.466 412.106,288.299 409.5,286C 411.594,284.648 413.927,284.148 416.5,284.5C 416.863,289.515 418.197,289.682 420.5,285C 425.833,284.333 431.167,284.333 436.5,285C 439.06,288.622 441.227,292.455 443,296.5C 444.388,296.214 445.888,296.548 447.5,297.5C 450.989,303.139 454.489,308.805 458,314.5C 460.36,309.76 463.193,305.426 466.5,301.5C 466.34,303.199 466.506,304.866 467,306.5C 468.167,304.167 469.333,301.833 470.5,299.5C 471.833,298.167 473.167,298.167 474.5,299.5C 475.789,302.58 477.455,305.414 479.5,308C 479.026,309.729 478.026,310.895 476.5,311.5C 475.475,320.271 473.808,328.938 471.5,337.5C 469.774,337.185 468.107,337.019 466.5,337C 470.302,342.558 469.968,347.725 465.5,352.5C 466.756,348.913 467.256,345.246 467,341.5C 464,336.167 461,330.833 458,325.5C 454.081,331.67 450.414,338.003 447,344.5C 449.291,352.078 452.958,359.078 458,365.5C 459.189,363.767 460.356,362.1 461.5,360.5C 462.016,365.186 460.016,367.519 455.5,367.5C 454.309,364.111 452.809,360.778 451,357.5C 450.5,358 450,358.5 449.5,359C 450.337,360.011 450.67,361.178 450.5,362.5C 448.023,358.899 445.523,355.233 443,351.5C 438.914,358.003 435.081,364.67 431.5,371.5C 435.081,378.33 438.914,384.997 443,391.5C 446.525,385.769 450.025,380.103 453.5,374.5C 453.414,375.496 453.748,376.329 454.5,377C 451.459,380.912 448.792,385.079 446.5,389.5C 446.833,389.833 447.167,390.167 447.5,390.5C 450.976,385.879 453.642,380.879 455.5,375.5C 457.948,375.01 459.615,375.843 460.5,378C 457.765,387.44 455.265,396.94 453,406.5C 449.85,408.161 448.35,407.161 448.5,403.5C 446.876,403.64 445.71,402.973 445,401.5C 444.405,402.899 444.572,404.232 445.5,405.5C 443.955,406.452 442.288,406.785 440.5,406.5C 440.333,403.043 439.333,402.71 437.5,405.5C 432.014,406.815 426.68,406.815 421.5,405.5C 426.179,405.666 430.845,405.499 435.5,405C 437.794,402.112 438.961,398.945 439,395.5C 435.833,389.833 432.667,384.167 429.5,378.5C 428.726,377.289 427.893,377.289 427,378.5C 423.5,384.833 420,391.167 416.5,397.5C 418.098,399.698 419.431,402.031 420.5,404.5C 418.983,404.489 417.816,403.823 417,402.5C 416.966,404.18 416.799,405.68 416.5,407C 413.947,407.851 411.614,407.518 409.5,406C 411.187,404.087 411.687,401.92 411,399.5C 409.877,402.249 408.377,404.749 406.5,407C 404,407.167 401.5,407.333 399,407.5C 396.071,407.475 393.571,406.809 391.5,405.5C 396.179,405.666 400.845,405.499 405.5,405C 408.009,402.157 409.509,398.99 410,395.5C 406.403,389.294 402.569,383.294 398.5,377.5C 394.446,383.773 390.78,390.273 387.5,397C 388.377,399.253 389.377,401.419 390.5,403.5C 388.983,403.489 387.816,402.823 387,401.5C 386.506,403.134 386.34,404.801 386.5,406.5C 381.882,407.025 380.882,405.692 383.5,402.5C 381.955,401.548 380.288,401.215 378.5,401.5C 379.909,399.695 380.409,397.695 380,395.5C 376.73,389.236 373.064,383.236 369,377.5C 365.155,383.861 361.322,390.194 357.5,396.5C 356.624,396.369 355.957,396.702 355.5,397.5C 358.514,400.578 359.181,403.744 357.5,407C 355.5,407.667 353.5,407.667 351.5,407C 350.601,405.348 349.601,403.848 348.5,402.5C 349.361,400.614 350.361,398.78 351.5,397C 347.876,390.249 343.876,383.749 339.5,377.5C 335.302,383.868 331.302,390.368 327.5,397C 328.305,398.113 328.972,399.279 329.5,400.5C 327.271,399.945 325.605,398.611 324.5,396.5C 323.717,398.288 322.384,399.288 320.5,399.5C 321.412,398.262 321.579,396.928 321,395.5C 317.333,389.5 313.667,383.5 310,377.5C 305.53,383.604 301.696,390.104 298.5,397C 299.444,399.722 300.777,402.222 302.5,404.5C 307.12,405.493 311.786,405.827 316.5,405.5C 311.684,406.65 306.684,406.816 301.5,406C 299.332,401.301 298.332,401.468 298.5,406.5C 296.5,406.5 294.5,406.5 292.5,406.5C 292.392,401.863 291.392,401.53 289.5,405.5C 284.014,406.815 278.68,406.815 273.5,405.5C 278.179,405.666 282.845,405.499 287.5,405C 289.63,402.739 290.964,400.072 291.5,397C 288.24,390.318 284.573,383.818 280.5,377.5C 278.242,380.357 276.242,383.357 274.5,386.5C 275.368,382.912 276.702,379.412 278.5,376C 278.333,375.5 278.167,375 278,374.5C 277.124,376.635 275.624,377.969 273.5,378.5C 274.569,376.031 275.902,373.698 277.5,371.5C 273.898,364.571 269.898,357.905 265.5,351.5C 261.5,358.167 257.5,364.833 253.5,371.5C 255.511,374.861 257.511,378.194 259.5,381.5C 258.504,381.586 257.671,381.252 257,380.5C 255.167,377.5 253.333,374.5 251.5,371.5C 254.629,367.476 253.962,366.143 249.5,367.5C 249.5,366.5 249.5,365.5 249.5,364.5C 250.397,365.598 251.23,365.598 252,364.5C 255.5,358.167 259,351.833 262.5,345.5C 258.866,338.704 255.033,332.038 251,325.5C 247.081,331.67 243.414,338.003 240,344.5C 239.591,346.695 240.091,348.695 241.5,350.5C 239.156,350.021 237.822,348.521 237.5,346C 240.8,340.236 243.634,334.403 246,328.5C 243.087,331.322 240.92,334.655 239.5,338.5C 238.311,339.429 236.978,339.762 235.5,339.5C 233.098,330.06 230.765,320.56 228.5,311C 228.529,308.075 229.862,306.242 232.5,305.5C 231.763,307.305 230.763,308.971 229.5,310.5C 232.322,319.455 234.989,328.455 237.5,337.5C 241.22,331.895 244.553,326.062 247.5,320C 246.034,317.568 244.701,315.068 243.5,312.5C 245.017,312.511 246.184,313.177 247,314.5C 247.167,314 247.333,313.5 247.5,313C 246.2,310.563 245.2,308.063 244.5,305.5C 246.645,308.433 248.812,311.433 251,314.5C 255.086,307.997 258.919,301.33 262.5,294.5C 261.167,292.167 259.833,289.833 258.5,287.5C 253.533,286.338 248.533,286.171 243.5,287C 242.022,289.457 240.689,291.957 239.5,294.5C 240.418,297.406 241.751,300.072 243.5,302.5C 240.098,300.569 237.931,297.569 237,293.5C 236.333,297.5 235.667,297.5 235,293.5C 233.772,297.059 232.106,300.392 230,303.5C 228.667,304.833 227.333,304.833 226,303.5C 224.656,297.789 223.156,292.123 221.5,286.5C 225.451,283.748 229.284,284.081 233,287.5C 233.483,286.552 233.649,285.552 233.5,284.5C 235.167,284.5 236.833,284.5 238.5,284.5C 238.5,285.5 238.5,286.5 238.5,287.5C 240.359,287.539 241.692,286.706 242.5,285C 247.833,284.333 253.167,284.333 258.5,285C 259.618,286.074 260.618,287.24 261.5,288.5C 262.429,287.311 262.762,285.978 262.5,284.5C 264.527,284.338 266.527,284.505 268.5,285C 268.727,286.135 269.06,287.302 269.5,288.5C 270.382,287.24 271.382,286.074 272.5,285C 277.833,284.333 283.167,284.333 288.5,285C 289.542,286.918 290.708,288.751 292,290.5C 292.595,289.101 292.428,287.768 291.5,286.5C 293.396,285.534 295.396,285.201 297.5,285.5C 297.338,287.527 297.505,289.527 298,291.5C 298.422,289.574 299.589,288.574 301.5,288.5 Z"/></g>
<g><path style="opacity:1" fill="#165282" d="M 427.5,326.5 C 429.074,326.937 430.241,327.937 431,329.5C 434.04,335.082 437.207,340.582 440.5,346C 436.375,352.416 432.375,358.916 428.5,365.5C 423.997,359.165 419.997,352.498 416.5,345.5C 420.431,339.303 424.098,332.969 427.5,326.5 Z"/></g>
<g><path style="opacity:1" fill="#175383" d="M 398.5,325.5 C 402.606,332.204 406.606,339.038 410.5,346C 406.547,352.737 402.714,359.57 399,366.5C 394.642,359.784 390.809,352.784 387.5,345.5C 391.156,338.84 394.823,332.173 398.5,325.5 Z"/></g>
<g><path style="opacity:1" fill="#165282" d="M 368.5,325.5 C 373.111,331.876 377.111,338.709 380.5,346C 377.22,352.727 373.554,359.227 369.5,365.5C 365.132,359.271 361.132,352.771 357.5,346C 361.566,339.367 365.233,332.534 368.5,325.5 Z"/></g>
<g><path style="opacity:1" fill="#175383" d="M 338.5,325.5 C 339.376,325.369 340.043,325.702 340.5,326.5C 343.914,332.997 347.581,339.33 351.5,345.5C 348.003,352.498 344.003,359.165 339.5,365.5C 335.302,359.132 331.302,352.632 327.5,346C 331.593,339.309 335.26,332.475 338.5,325.5 Z"/></g>
<g><path style="opacity:1" fill="#175282" d="M 309.5,325.5 C 314.051,331.914 318.051,338.748 321.5,346C 318.304,352.896 314.47,359.396 310,365.5C 306.034,359.066 302.201,352.566 298.5,346C 302.045,339.076 305.711,332.243 309.5,325.5 Z"/></g>
<g><path style="opacity:1" fill="#175383" d="M 279.5,325.5 C 280.376,325.369 281.043,325.702 281.5,326.5C 284.767,333.092 288.434,339.425 292.5,345.5C 288.5,352.167 284.5,358.833 280.5,365.5C 276.102,359.095 272.102,352.429 268.5,345.5C 272.699,339.1 276.366,332.433 279.5,325.5 Z"/></g>
<g><path style="opacity:1" fill="#175382" d="M 383.5,300.5 C 387.857,306.702 391.857,313.202 395.5,320C 392.054,327.06 388.22,333.893 384,340.5C 379.78,333.893 375.946,327.06 372.5,320C 376.298,313.57 379.965,307.07 383.5,300.5 Z"/></g>
<g><path style="opacity:1" fill="#165282" d="M 294.5,300.5 C 299.496,306.478 303.496,313.144 306.5,320.5C 302.936,327.292 299.102,333.959 295,340.5C 291.419,333.67 287.586,327.003 283.5,320.5C 287.179,313.806 290.846,307.14 294.5,300.5 Z"/></g>
<g><path style="opacity:1" fill="#175181" d="M 476.5,311.5 C 474.189,319.394 471.856,327.394 469.5,335.5C 467.004,331.176 464.504,326.843 462,322.5C 461.333,321.167 461.333,319.833 462,318.5C 465.248,312.336 468.748,306.336 472.5,300.5C 475.974,303.558 477.308,307.225 476.5,311.5 Z"/></g>
<g><path style="opacity:1" fill="#165282" d="M 442.5,300.5 C 447.359,306.367 451.359,312.867 454.5,320C 451.054,327.06 447.22,333.893 443,340.5C 438.78,333.893 434.946,327.06 431.5,320C 435.298,313.57 438.965,307.07 442.5,300.5 Z"/></g>
<g><path style="opacity:1" fill="#175282" d="M 264.5,300.5 C 266.074,300.937 267.241,301.937 268,303.5C 271.167,309.167 274.333,314.833 277.5,320.5C 273.5,327.167 269.5,333.833 265.5,340.5C 261.378,333.758 257.378,326.925 253.5,320C 257.824,313.851 261.49,307.351 264.5,300.5 Z"/></g>
<g><path style="opacity:1" fill="#175382" d="M 412.5,300.5 C 413.376,300.369 414.043,300.702 414.5,301.5C 417.914,307.997 421.581,314.33 425.5,320.5C 421.5,327.167 417.5,333.833 413.5,340.5C 409.5,333.833 405.5,327.167 401.5,320.5C 405.223,313.799 408.89,307.133 412.5,300.5 Z"/></g>
<g><path style="opacity:1" fill="#175382" d="M 348.5,309.5 C 348.5,309.167 348.5,308.833 348.5,308.5C 350.479,305.901 352.479,303.235 354.5,300.5C 358.691,306.883 362.358,313.549 365.5,320.5C 362.354,327.46 358.687,334.126 354.5,340.5C 350.5,333.833 346.5,327.167 342.5,320.5C 344.766,316.966 346.766,313.3 348.5,309.5 Z"/></g>
<g><path style="opacity:1" fill="#175282" d="M 324.5,300.5 C 328.977,306.772 332.977,313.438 336.5,320.5C 332.866,327.296 329.033,333.962 325,340.5C 320.75,333.912 316.916,327.079 313.5,320C 316.792,313.246 320.458,306.746 324.5,300.5 Z"/></g>
<g><path style="opacity:1" fill="#144c7e" d="M 223.5,287.5 C 224.946,286.387 226.613,286.22 228.5,287C 230.794,289.888 231.961,293.055 232,296.5C 230.667,298.5 229.333,300.5 228,302.5C 226.631,297.336 225.131,292.336 223.5,287.5 Z"/></g>
<g><path style="opacity:1" fill="#165282" d="M 420.5,286.5 C 425.511,286.334 430.511,286.501 435.5,287C 438.246,289.646 439.413,292.812 439,296.5C 435.752,302.664 432.252,308.664 428.5,314.5C 423.997,308.165 419.997,301.498 416.5,294.5C 418.372,292.09 419.705,289.423 420.5,286.5 Z"/></g>
<g><path style="opacity:1" fill="#165282" d="M 409.5,291.5 C 409.5,291.833 409.5,292.167 409.5,292.5C 409.804,293.15 410.137,293.817 410.5,294.5C 406.898,301.429 402.898,308.095 398.5,314.5C 394.309,308.117 390.642,301.451 387.5,294.5C 388.191,291.647 389.524,289.147 391.5,287C 396.533,286.171 401.533,286.338 406.5,287.5C 407.035,289.261 408.035,290.594 409.5,291.5 Z"/></g>
<g><path style="opacity:1" fill="#165282" d="M 360.5,288.5 C 365.54,286.467 370.873,285.967 376.5,287C 378.794,289.888 379.961,293.055 380,296.5C 376.73,302.764 373.064,308.764 369,314.5C 364.914,307.997 361.081,301.33 357.5,294.5C 358.513,292.473 359.513,290.473 360.5,288.5 Z"/></g>
<g><path style="opacity:1" fill="#175282" d="M 347.5,301.5 C 347.5,301.833 347.5,302.167 347.5,302.5C 344.857,306.435 342.19,310.435 339.5,314.5C 335.5,307.833 331.5,301.167 327.5,294.5C 329.086,292.33 330.42,289.996 331.5,287.5C 336.833,286.167 342.167,286.167 347.5,287.5C 348.58,289.996 349.914,292.33 351.5,294.5C 350.139,296.85 348.806,299.184 347.5,301.5 Z"/></g>
<g><path style="opacity:1" fill="#165282" d="M 302.5,286.5 C 307.544,286.173 312.544,286.506 317.5,287.5C 319.827,290.137 320.993,293.137 321,296.5C 317.333,302.5 313.667,308.5 310,314.5C 305.914,307.997 302.081,301.33 298.5,294.5C 299.513,292.473 300.513,290.473 301.5,288.5C 301.833,287.833 302.167,287.167 302.5,286.5 Z"/></g>
<g><path style="opacity:1" fill="#165383" d="M 272.5,286.5 C 277.511,286.334 282.511,286.501 287.5,287C 289.291,289.414 290.957,291.914 292.5,294.5C 288.5,301.167 284.5,307.833 280.5,314.5C 276.5,307.833 272.5,301.167 268.5,294.5C 270.372,292.09 271.705,289.423 272.5,286.5 Z"/></g>
<g><path style="opacity:1" fill="#175282" d="M 323.5,351.5 C 328.781,357.354 333.114,364.021 336.5,371.5C 332.919,378.33 329.086,384.997 325,391.5C 320.392,385.285 316.559,378.619 313.5,371.5C 316.863,364.774 320.196,358.108 323.5,351.5 Z"/></g>
<g><path style="opacity:1" fill="#175282" d="M 353.5,351.5 C 358.469,357.414 362.469,364.081 365.5,371.5C 362.358,378.451 358.691,385.117 354.5,391.5C 350.102,385.095 346.102,378.429 342.5,371.5C 346.223,364.799 349.89,358.133 353.5,351.5 Z"/></g>
<g><path style="opacity:1" fill="#165282" d="M 412.5,351.5 C 413.376,351.369 414.043,351.702 414.5,352.5C 417.914,358.997 421.581,365.33 425.5,371.5C 421.5,378.167 417.5,384.833 413.5,391.5C 409.309,385.117 405.642,378.451 402.5,371.5C 405.842,364.816 409.175,358.15 412.5,351.5 Z"/></g>
<g><path style="opacity:1" fill="#165383" d="M 294.5,351.5 C 298.993,357.81 302.993,364.476 306.5,371.5C 302.936,378.292 299.102,384.959 295,391.5C 290.967,384.962 287.134,378.296 283.5,371.5C 287.195,364.816 290.862,358.15 294.5,351.5 Z"/></g>
<g><path style="opacity:1" fill="#165282" d="M 383.5,351.5 C 387.977,357.772 391.977,364.438 395.5,371.5C 391.919,378.33 388.086,384.997 384,391.5C 379.898,384.959 376.064,378.292 372.5,371.5C 376.162,364.843 379.829,358.177 383.5,351.5 Z"/></g>
<g><path style="opacity:1" fill="#175282" d="M 450.5,362.5 C 451.128,365.09 452.295,367.423 454,369.5C 454.64,371.265 454.473,372.932 453.5,374.5C 450.025,380.103 446.525,385.769 443,391.5C 438.914,384.997 435.081,378.33 431.5,371.5C 435.081,364.67 438.914,358.003 443,351.5C 445.523,355.233 448.023,358.899 450.5,362.5 Z"/></g>
<g><path style="opacity:1" fill="#185789" d="M 273.5,378.5 C 271.095,382.973 268.429,387.306 265.5,391.5C 263.489,388.139 261.489,384.806 259.5,381.5C 257.511,378.194 255.511,374.861 253.5,371.5C 257.5,364.833 261.5,358.167 265.5,351.5C 269.898,357.905 273.898,364.571 277.5,371.5C 275.902,373.698 274.569,376.031 273.5,378.5 Z"/></g>
<g><path style="opacity:1" fill="#1a77bc" d="M 276.5,622.5 C 272.5,626.833 268.5,631.167 264.5,635.5C 263.761,635.369 263.094,635.536 262.5,636C 264.134,636.494 265.801,636.66 267.5,636.5C 269.265,637.461 271.265,637.795 273.5,637.5C 275.5,638.833 277.5,638.833 279.5,637.5C 281.099,637.232 282.432,637.566 283.5,638.5C 282.209,638.263 281.209,638.596 280.5,639.5C 277.5,639.5 274.5,639.5 271.5,639.5C 263.616,637.753 255.616,635.92 247.5,634C 253.864,633.019 253.531,632.519 246.5,632.5C 245.791,631.596 244.791,631.263 243.5,631.5C 244.609,630.71 245.942,630.21 247.5,630C 239.403,627.976 231.403,625.643 223.5,623C 224.167,622.667 224.833,622.333 225.5,622C 214.167,610.667 202.833,599.333 191.5,588C 134.848,533.02 78.1809,477.354 21.5,421C 20.5838,420.626 19.7504,420.126 19,419.5C 19.1953,421.126 19.1953,422.793 19,424.5C 18.2904,423.027 17.1238,422.36 15.5,422.5C 15.6716,421.508 15.3382,420.842 14.5,420.5C 14.1667,416.5 13.8333,416.5 13.5,420.5C 8.62292,410.037 6.12292,399.037 6,387.5C 5.66667,388.833 5.33333,390.167 5,391.5C 3.08048,383.384 1.24714,375.384 -0.5,367.5C -0.5,364.167 -0.5,360.833 -0.5,357.5C 0.338246,357.158 0.67158,356.492 0.5,355.5C 1.43448,356.568 1.76781,357.901 1.5,359.5C 0.166667,361.5 0.166667,363.5 1.5,365.5C 2.16667,365.5 2.5,365.833 2.5,366.5C 1.16667,368.167 1.16667,369.833 2.5,371.5C 3.16667,371.5 3.5,371.833 3.5,372.5C 2.16667,373.833 2.16667,375.167 3.5,376.5C 3.5,376.833 3.5,377.167 3.5,377.5C 3.83333,382.833 4.16667,382.833 4.5,377.5C 5.80263,371.989 5.13596,366.656 2.5,361.5C 3.29861,358.325 3.63195,355.325 3.5,352.5C 3.43456,352.938 3.60123,353.272 4,353.5C 6.66667,350.833 9.33333,348.167 12,345.5C 12.3333,346.5 12.6667,347.5 13,348.5C 48.2814,382.156 82.7814,416.323 116.5,451C 120.39,453.771 124.057,456.771 127.5,460C 165.322,498.321 203.655,536.155 242.5,573.5C 255.628,587.461 269.295,600.961 283.5,614C 280.833,616.667 278.167,619.333 275.5,622C 275.728,622.399 276.062,622.565 276.5,622.5 Z"/></g>
<g><path style="opacity:1" fill="#17578a" d="M 273.5,405.5 C 271.844,402.861 270.178,400.195 268.5,397.5C 270.528,393.816 272.528,390.15 274.5,386.5C 276.242,383.357 278.242,380.357 280.5,377.5C 284.573,383.818 288.24,390.318 291.5,397C 290.964,400.072 289.63,402.739 287.5,405C 282.845,405.499 278.179,405.666 273.5,405.5 Z"/></g>
<g><path style="opacity:1" fill="#165282" d="M 348.5,402.5 C 348.047,403.458 347.381,404.292 346.5,405C 341.833,405.667 337.167,405.667 332.5,405C 331.601,403.348 330.601,401.848 329.5,400.5C 328.972,399.279 328.305,398.113 327.5,397C 331.302,390.368 335.302,383.868 339.5,377.5C 343.876,383.749 347.876,390.249 351.5,397C 350.361,398.78 349.361,400.614 348.5,402.5 Z"/></g>
<g><path style="opacity:1" fill="#155182" d="M 391.5,405.5 C 391.167,404.833 390.833,404.167 390.5,403.5C 389.377,401.419 388.377,399.253 387.5,397C 390.78,390.273 394.446,383.773 398.5,377.5C 402.569,383.294 406.403,389.294 410,395.5C 409.509,398.99 408.009,402.157 405.5,405C 400.845,405.499 396.179,405.666 391.5,405.5 Z"/></g>
<g><path style="opacity:1" fill="#165282" d="M 378.5,401.5 C 377.972,402.721 377.305,403.887 376.5,405C 371.467,405.829 366.467,405.662 361.5,404.5C 359.703,402.045 358.37,399.378 357.5,396.5C 361.322,390.194 365.155,383.861 369,377.5C 373.064,383.236 376.73,389.236 380,395.5C 380.409,397.695 379.909,399.695 378.5,401.5 Z"/></g>
<g><path style="opacity:1" fill="#165282" d="M 421.5,405.5 C 420.833,405.5 420.5,405.167 420.5,404.5C 419.431,402.031 418.098,399.698 416.5,397.5C 420,391.167 423.5,384.833 427,378.5C 427.893,377.289 428.726,377.289 429.5,378.5C 432.667,384.167 435.833,389.833 439,395.5C 438.961,398.945 437.794,402.112 435.5,405C 430.845,405.499 426.179,405.666 421.5,405.5 Z"/></g>
<g><path style="opacity:1" fill="#165485" d="M 320.5,399.5 C 319.154,401.537 317.82,403.537 316.5,405.5C 311.786,405.827 307.12,405.493 302.5,404.5C 300.777,402.222 299.444,399.722 298.5,397C 301.696,390.104 305.53,383.604 310,377.5C 313.667,383.5 317.333,389.5 321,395.5C 321.579,396.928 321.412,398.262 320.5,399.5 Z"/></g>
<g><path style="opacity:1" fill="#19598e" d="M 249.5,377.5 C 250.496,377.414 251.329,377.748 252,378.5C 255.516,384.677 259.016,390.843 262.5,397C 261.036,400.102 259.202,402.935 257,405.5C 254.919,403.287 253.585,400.62 253,397.5C 251.967,391.703 250.467,386.036 248.5,380.5C 249.127,379.583 249.461,378.583 249.5,377.5 Z"/></g>
<g><path style="opacity:0.008" fill="#58a6d1" d="M 5.5,392.5 C 6.57346,393.251 6.74012,394.251 6,395.5C 5.51722,394.552 5.35055,393.552 5.5,392.5 Z"/></g>
<g><path style="opacity:0.008" fill="#3593b9" d="M 632.5,392.5 C 633.573,393.251 633.74,394.251 633,395.5C 632.517,394.552 632.351,393.552 632.5,392.5 Z"/></g>
<g><path style="opacity:1" fill="#195080" d="M 457.5,377.5 C 458.043,377.56 458.376,377.893 458.5,378.5C 456.063,387.182 453.563,395.849 451,404.5C 448.865,402.398 447.365,399.898 446.5,397C 449.792,390.246 453.458,383.746 457.5,377.5 Z"/></g>
<g><path style="opacity:1" fill="#1b7ec6" d="M 243.5,631.5 C 241.598,632.511 239.598,632.678 237.5,632C 231.105,630.202 224.772,628.202 218.5,626C 219.5,625.667 220.5,625.333 221.5,625C 219.564,624.187 217.564,623.687 215.5,623.5C 213.786,622.262 211.786,621.595 209.5,621.5C 209.158,620.662 208.492,620.328 207.5,620.5C 206.5,619.167 205.5,619.167 204.5,620.5C 201.984,620.245 199.65,619.411 197.5,618C 200.167,617.333 200.167,616.667 197.5,616C 195.5,616 193.5,616 191.5,616C 190.167,615.333 188.833,614.667 187.5,614C 188.167,613.667 188.833,613.333 189.5,613C 185.833,611.167 182.167,609.333 178.5,607.5C 175.849,608.789 173.516,608.289 171.5,606C 172.167,605.667 172.833,605.333 173.5,605C 171.294,603.193 168.961,602.693 166.5,603.5C 164.724,602.685 164.057,601.518 164.5,600C 163.552,599.517 162.552,599.351 161.5,599.5C 161.5,598.833 161.167,598.5 160.5,598.5C 159.833,597.167 159.167,597.167 158.5,598.5C 157.373,596.563 155.373,594.73 152.5,593C 150.89,591.505 149.224,591.339 147.5,592.5C 146.478,592.145 145.811,591.478 145.5,590.5C 146.833,590.167 146.833,589.833 145.5,589.5C 145.5,588.833 145.167,588.5 144.5,588.5C 144.158,587.662 143.492,587.328 142.5,587.5C 142.5,586.833 142.167,586.5 141.5,586.5C 140.101,585.11 138.434,584.11 136.5,583.5C 136.5,582.833 136.167,582.5 135.5,582.5C 134.828,581.733 133.995,581.066 133,580.5C 131.129,581.668 129.629,581.168 128.5,579C 128.833,578.667 129.167,578.333 129.5,578C 127.538,575.502 125.205,574.502 122.5,575C 121.167,574.333 121.167,573.667 122.5,573C 121.667,572.167 120.833,571.333 120,570.5C 119.282,571.451 118.449,571.617 117.5,571C 116.075,569.638 115.242,568.138 115,566.5C 114.282,567.451 113.449,567.617 112.5,567C 111.218,564.342 109.385,561.842 107,559.5C 106.282,560.451 105.449,560.617 104.5,560C 102.833,558.333 101.167,556.667 99.5,555C 99.8333,554.667 100.167,554.333 100.5,554C 93.6646,546.466 86.4979,539.966 79,534.5C 78.3828,533.551 78.5494,532.718 79.5,532C 77.1581,529.615 74.6581,527.782 72,526.5C 71.028,524.695 69.8613,523.028 68.5,521.5C 68.7093,520.914 69.0426,520.414 69.5,520C 67.8156,518.26 65.9823,517.094 64,516.5C 63.3828,515.551 63.5494,514.718 64.5,514C 63.9341,513.005 63.2674,512.172 62.5,511.5C 59.5179,510.38 57.0179,508.047 55,504.5C 49.8928,496.611 45.0595,488.611 40.5,480.5C 41.8333,479.833 41.8333,479.167 40.5,478.5C 40.1667,475.833 39.8333,475.833 39.5,478.5C 29.5932,462.03 21.4265,445.03 15,427.5C 14.3603,425.735 14.5269,424.068 15.5,422.5C 17.1238,422.36 18.2904,423.027 19,424.5C 19.1953,422.793 19.1953,421.126 19,419.5C 19.7504,420.126 20.5838,420.626 21.5,421C 78.1809,477.354 134.848,533.02 191.5,588C 202.833,599.333 214.167,610.667 225.5,622C 224.833,622.333 224.167,622.667 223.5,623C 231.403,625.643 239.403,627.976 247.5,630C 245.942,630.21 244.609,630.71 243.5,631.5 Z"/></g>
<g><path style="opacity:0.012" fill="#047be2" d="M 13.5,420.5 C 13.8333,420.5 14.1667,420.5 14.5,420.5C 14.1667,423.167 13.8333,423.167 13.5,420.5 Z"/></g>
<g><path style="opacity:0.008" fill="#009fff" d="M 624.5,420.5 C 624.833,420.5 625.167,420.5 625.5,420.5C 625.167,423.167 624.833,423.167 624.5,420.5 Z"/></g>
<g><path style="opacity:1" fill="#165787" d="M 242.5,415.5 C 243.038,417.117 243.371,418.784 243.5,420.5C 315.833,420.5 388.167,420.5 460.5,420.5C 452.472,428.86 444.472,437.193 436.5,445.5C 430.986,431.404 420.652,425.57 405.5,428C 389.126,435.437 384.293,447.604 391,464.5C 399.431,476.541 410.598,479.874 424.5,474.5C 405.167,494.5 385.5,514.167 365.5,533.5C 371.275,526.198 377.942,519.031 385.5,512C 365.726,494.228 346.559,475.728 328,456.5C 327.814,454.1 327.314,451.766 326.5,449.5C 325.379,452.137 325.379,454.804 326.5,457.5C 324.725,460.738 322.725,463.738 320.5,466.5C 328.727,448.46 323.727,435.627 305.5,428C 298.876,426.911 292.542,427.745 286.5,430.5C 288.965,428.163 291.965,426.663 295.5,426C 299.194,425.722 302.861,425.722 306.5,426C 302.619,424.81 298.619,424.143 294.5,424C 301.5,423.667 308.5,423.333 315.5,423C 291.5,422.667 267.5,422.333 243.5,422C 241.582,419.891 241.249,417.725 242.5,415.5 Z"/></g>
<g><path style="opacity:1" fill="#f5fcfb" d="M 320.5,466.5 C 317.665,469.165 314.665,471.665 311.5,474C 307.741,475.913 303.741,476.747 299.5,476.5C 280.766,474.08 272.932,463.413 276,444.5C 278.597,439.081 282.097,434.415 286.5,430.5C 292.542,427.745 298.876,426.911 305.5,428C 323.727,435.627 328.727,448.46 320.5,466.5 Z"/></g>
<g><path style="opacity:1" fill="#f5fcfb" d="M 436.5,445.5 C 438.735,457.804 434.735,467.471 424.5,474.5C 410.598,479.874 399.431,476.541 391,464.5C 384.293,447.604 389.126,435.437 405.5,428C 420.652,425.57 430.986,431.404 436.5,445.5 Z"/></g>
<g><path style="opacity:0.008" fill="#1388ff" d="M 39.5,478.5 C 39.8333,478.5 40.1667,478.5 40.5,478.5C 40.5,479.167 40.5,479.833 40.5,480.5C 39.6618,480.158 39.3284,479.492 39.5,478.5 Z"/></g>
<g><path style="opacity:0.008" fill="#1388ff" d="M 598.5,478.5 C 598.833,478.5 599.167,478.5 599.5,478.5C 599.672,479.492 599.338,480.158 598.5,480.5C 598.5,479.833 598.5,479.167 598.5,478.5 Z"/></g>
<g><path style="opacity:0.02" fill="#00b6ff" d="M 577.5,510.5 C 577.833,510.5 578.167,510.5 578.5,510.5C 578.315,511.17 577.981,511.17 577.5,510.5 Z"/></g>
<g><path style="opacity:0.004" fill="#27daff" d="M 62.5,511.5 C 62.631,512.239 62.4643,512.906 62,513.5C 61.3083,512.563 61.475,511.897 62.5,511.5 Z"/></g>
<g><path style="opacity:0.004" fill="#28d9ff" d="M 576.5,511.5 C 576.833,511.5 577.167,511.5 577.5,511.5C 577.672,512.492 577.338,513.158 576.5,513.5C 576.5,512.833 576.5,512.167 576.5,511.5 Z"/></g>
<g><path style="opacity:0.008" fill="#008bff" d="M 575.5,513.5 C 575.833,513.5 576.167,513.5 576.5,513.5C 576.315,514.17 575.981,514.17 575.5,513.5 Z"/></g>
<g><path style="opacity:0.024" fill="#0094fd" d="M 571.5,518.5 C 571.833,518.5 572.167,518.5 572.5,518.5C 572.315,519.17 571.981,519.17 571.5,518.5 Z"/></g>
<g><path style="opacity:0.024" fill="#0093fb" d="M 570.5,519.5 C 570.833,519.5 571.167,519.5 571.5,519.5C 571.315,520.17 570.981,520.17 570.5,519.5 Z"/></g>
<g><path style="opacity:0.016" fill="#0096ff" d="M 562.5,529.5 C 562.833,529.5 563.167,529.5 563.5,529.5C 563.315,530.17 562.981,530.17 562.5,529.5 Z"/></g>
<g><path style="opacity:0.016" fill="#0096dd" d="M 561.5,530.5 C 561.833,530.5 562.167,530.5 562.5,530.5C 562.315,531.17 561.981,531.17 561.5,530.5 Z"/></g>
<g><path style="opacity:0.016" fill="#0096ff" d="M 560.5,531.5 C 560.833,531.5 561.167,531.5 561.5,531.5C 561.315,532.17 560.981,532.17 560.5,531.5 Z"/></g>
<g><path style="opacity:0.012" fill="#005dff" d="M 552.5,540.5 C 552.833,540.5 553.167,540.5 553.5,540.5C 553.315,541.17 552.981,541.17 552.5,540.5 Z"/></g>
<g><path style="opacity:0.016" fill="#0097dd" d="M 551.5,541.5 C 551.833,541.5 552.167,541.5 552.5,541.5C 552.315,542.17 551.981,542.17 551.5,541.5 Z"/></g>
<g><path style="opacity:0.016" fill="#0097ff" d="M 550.5,542.5 C 550.833,542.5 551.167,542.5 551.5,542.5C 551.315,543.17 550.981,543.17 550.5,542.5 Z"/></g>
<g><path style="opacity:0.02" fill="#0074ef" d="M 549.5,543.5 C 549.833,543.5 550.167,543.5 550.5,543.5C 550.315,544.17 549.981,544.17 549.5,543.5 Z"/></g>
<g><path style="opacity:0.02" fill="#00b9ff" d="M 548.5,544.5 C 548.833,544.5 549.167,544.5 549.5,544.5C 549.315,545.17 548.981,545.17 548.5,544.5 Z"/></g>
<g><path style="opacity:0.02" fill="#00b8ff" d="M 547.5,545.5 C 547.833,545.5 548.167,545.5 548.5,545.5C 548.315,546.17 547.981,546.17 547.5,545.5 Z"/></g>
<g><path style="opacity:0.024" fill="#0094f9" d="M 546.5,546.5 C 546.833,546.5 547.167,546.5 547.5,546.5C 547.315,547.17 546.981,547.17 546.5,546.5 Z"/></g>
<g><path style="opacity:0.02" fill="#00b8ff" d="M 545.5,547.5 C 545.833,547.5 546.167,547.5 546.5,547.5C 546.315,548.17 545.981,548.17 545.5,547.5 Z"/></g>
<g><path style="opacity:0.02" fill="#00b8ef" d="M 544.5,548.5 C 544.833,548.5 545.167,548.5 545.5,548.5C 545.315,549.17 544.981,549.17 544.5,548.5 Z"/></g>
<g><path style="opacity:0.016" fill="#0095ff" d="M 543.5,549.5 C 543.833,549.5 544.167,549.5 544.5,549.5C 544.315,550.17 543.981,550.17 543.5,549.5 Z"/></g>
<g><path style="opacity:0.016" fill="#0094ff" d="M 542.5,550.5 C 542.833,550.5 543.167,550.5 543.5,550.5C 543.315,551.17 542.981,551.17 542.5,550.5 Z"/></g>
<g><path style="opacity:0.012" fill="#00cfff" d="M 541.5,551.5 C 541.833,551.5 542.167,551.5 542.5,551.5C 542.315,552.17 541.981,552.17 541.5,551.5 Z"/></g>
<g><path style="opacity:0.016" fill="#0093dd" d="M 540.5,552.5 C 540.833,552.5 541.167,552.5 541.5,552.5C 541.315,553.17 540.981,553.17 540.5,552.5 Z"/></g>
<g><path style="opacity:0.012" fill="#00cdff" d="M 539.5,553.5 C 539.833,553.5 540.167,553.5 540.5,553.5C 540.315,554.17 539.981,554.17 539.5,553.5 Z"/></g>
<g><path style="opacity:0.016" fill="#00e8ff" d="M 531.5,560.5 C 531.833,560.5 532.167,560.5 532.5,560.5C 532.315,561.17 531.981,561.17 531.5,560.5 Z"/></g>
<g><path style="opacity:0.016" fill="#0093ff" d="M 530.5,561.5 C 530.833,561.5 531.167,561.5 531.5,561.5C 531.315,562.17 530.981,562.17 530.5,561.5 Z"/></g>
<g><path style="opacity:0.016" fill="#0096ff" d="M 529.5,562.5 C 529.833,562.5 530.167,562.5 530.5,562.5C 530.315,563.17 529.981,563.17 529.5,562.5 Z"/></g>
<g><path style="opacity:0.012" fill="#00cfff" d="M 523.5,567.5 C 523.833,567.5 524.167,567.5 524.5,567.5C 524.315,568.17 523.981,568.17 523.5,567.5 Z"/></g>
<g><path style="opacity:0.008" fill="#0090ff" d="M 522.5,568.5 C 522.833,568.5 523.167,568.5 523.5,568.5C 523.315,569.17 522.981,569.17 522.5,568.5 Z"/></g>
<g><path style="opacity:0.004" fill="#3f72ff" d="M 520.5,569.5 C 521.167,569.5 521.833,569.5 522.5,569.5C 522.027,570.906 521.027,571.573 519.5,571.5C 519.5,571.167 519.5,570.833 519.5,570.5C 520.167,570.5 520.5,570.167 520.5,569.5 Z"/></g>
<g><path style="opacity:0.024" fill="#0095f9" d="M 518.5,571.5 C 518.833,571.5 519.167,571.5 519.5,571.5C 519.315,572.17 518.981,572.17 518.5,571.5 Z"/></g>
<g><path style="opacity:0.02" fill="#00b7ff" d="M 517.5,572.5 C 517.833,572.5 518.167,572.5 518.5,572.5C 518.315,573.17 517.981,573.17 517.5,572.5 Z"/></g>
<g><path style="opacity:0.006" fill="#37caf7" d="M 515.5,573.5 C 516.167,573.5 516.833,573.5 517.5,573.5C 517.027,574.906 516.027,575.573 514.5,575.5C 514.5,575.167 514.5,574.833 514.5,574.5C 515.167,574.5 515.5,574.167 515.5,573.5 Z"/></g>
<g><path style="opacity:0.012" fill="#005dff" d="M 513.5,575.5 C 513.833,575.5 514.167,575.5 514.5,575.5C 514.315,576.17 513.981,576.17 513.5,575.5 Z"/></g>
<g><path style="opacity:0.004" fill="#00d8d6" d="M 511.5,577.5 C 511.5,577.167 511.5,576.833 511.5,576.5C 512.167,576.5 512.833,576.5 513.5,576.5C 513.158,577.338 512.492,577.672 511.5,577.5 Z"/></g>
<g><path style="opacity:0.02" fill="#00b9ff" d="M 510.5,577.5 C 510.833,577.5 511.167,577.5 511.5,577.5C 511.315,578.17 510.981,578.17 510.5,577.5 Z"/></g>
<g><path style="opacity:0.016" fill="#0096e0" d="M 505.5,581.5 C 505.833,581.5 506.167,581.5 506.5,581.5C 506.315,582.17 505.981,582.17 505.5,581.5 Z"/></g>
<g><path style="opacity:0.008" fill="#216dc6" d="M 135.5,582.5 C 136.167,582.5 136.5,582.833 136.5,583.5C 135.503,584.713 134.503,584.546 133.5,583C 134.094,582.536 134.761,582.369 135.5,582.5 Z"/></g>
<g><path style="opacity:0.004" fill="#2557ff" d="M 503.5,582.5 C 504.167,582.5 504.833,582.5 505.5,582.5C 505.027,583.906 504.027,584.573 502.5,584.5C 502.5,584.167 502.5,583.833 502.5,583.5C 503.167,583.5 503.5,583.167 503.5,582.5 Z"/></g>
<g><path style="opacity:0.004" fill="#28d9ff" d="M 500.5,585.5 C 500.5,585.167 500.5,584.833 500.5,584.5C 501.167,584.5 501.833,584.5 502.5,584.5C 502.158,585.338 501.492,585.672 500.5,585.5 Z"/></g>
<g><path style="opacity:0.012" fill="#00cfff" d="M 499.5,585.5 C 499.833,585.5 500.167,585.5 500.5,585.5C 500.315,586.17 499.981,586.17 499.5,585.5 Z"/></g>
<g><path style="opacity:0.02" fill="#14bcf0" d="M 141.5,586.5 C 142.167,586.5 142.5,586.833 142.5,587.5C 142.5,587.833 142.5,588.167 142.5,588.5C 139.54,587.968 139.207,587.301 141.5,586.5 Z"/></g>
<g><path style="opacity:0.004" fill="#27c2fc" d="M 497.5,586.5 C 498.167,586.5 498.833,586.5 499.5,586.5C 499.027,587.906 498.027,588.573 496.5,588.5C 496.5,588.167 496.5,587.833 496.5,587.5C 497.167,587.5 497.5,587.167 497.5,586.5 Z"/></g>
<g><path style="opacity:0.012" fill="#13c0f8" d="M 142.5,588.5 C 143.167,588.5 143.833,588.5 144.5,588.5C 145.167,588.5 145.5,588.833 145.5,589.5C 145.5,589.833 145.5,590.167 145.5,590.5C 143.973,590.573 142.973,589.906 142.5,588.5 Z"/></g>
<g><path style="opacity:0.004" fill="#17d9ff" d="M 494.5,588.5 C 495.167,588.5 495.833,588.5 496.5,588.5C 496.027,589.906 495.027,590.573 493.5,590.5C 493.5,590.167 493.5,589.833 493.5,589.5C 494.167,589.5 494.5,589.167 494.5,588.5 Z"/></g>
<g><path style="opacity:0.008" fill="#009bff" d="M 488.5,592.5 C 489.833,593.167 489.833,593.167 488.5,592.5 Z"/></g>
<g><path style="opacity:0.008" fill="#0eabff" d="M 486.5,594.5 C 486.5,594.167 486.5,593.833 486.5,593.5C 487.167,593.5 487.833,593.5 488.5,593.5C 488.158,594.338 487.492,594.672 486.5,594.5 Z"/></g>
<g><path style="opacity:0.02" fill="#00b5ff" d="M 485.5,594.5 C 485.833,594.5 486.167,594.5 486.5,594.5C 486.315,595.17 485.981,595.17 485.5,594.5 Z"/></g>
<g><path style="opacity:0.012" fill="#1ac6dc" d="M 483.5,596.5 C 483.5,596.167 483.5,595.833 483.5,595.5C 484.167,595.5 484.833,595.5 485.5,595.5C 485.158,596.338 484.492,596.672 483.5,596.5 Z"/></g>
<g><path style="opacity:0.008" fill="#1e76c0" d="M 158.5,598.5 C 159.167,598.5 159.833,598.5 160.5,598.5C 161.167,598.5 161.5,598.833 161.5,599.5C 160.221,600.715 159.221,600.382 158.5,598.5 Z"/></g>
<g><path style="opacity:0.008" fill="#2b75ff" d="M 474.5,601.5 C 474.5,601.167 474.5,600.833 474.5,600.5C 475.167,600.5 475.833,600.5 476.5,600.5C 476.158,601.338 475.492,601.672 474.5,601.5 Z"/></g>
<g><path style="opacity:0.008" fill="#0eaaff" d="M 469.5,604.5 C 469.5,604.167 469.5,603.833 469.5,603.5C 470.167,603.5 470.833,603.5 471.5,603.5C 471.158,604.338 470.492,604.672 469.5,604.5 Z"/></g>
<g><path style="opacity:0.012" fill="#12bdfc" d="M 467.5,605.5 C 467.5,605.167 467.5,604.833 467.5,604.5C 468.167,604.5 468.833,604.5 469.5,604.5C 469.158,605.338 468.492,605.672 467.5,605.5 Z"/></g>
<g><path style="opacity:0.004" fill="#2ad7ff" d="M 459.5,609.5 C 459.5,609.167 459.5,608.833 459.5,608.5C 460.167,608.5 460.833,608.5 461.5,608.5C 461.158,609.338 460.492,609.672 459.5,609.5 Z"/></g>
<g><path style="opacity:0.008" fill="#0eecff" d="M 457.5,610.5 C 457.5,610.167 457.5,609.833 457.5,609.5C 458.167,609.5 458.833,609.5 459.5,609.5C 459.158,610.338 458.492,610.672 457.5,610.5 Z"/></g>
<g><path style="opacity:0.008" fill="#0099fc" d="M 455.5,611.5 C 455.5,611.167 455.5,610.833 455.5,610.5C 456.167,610.5 456.833,610.5 457.5,610.5C 457.158,611.338 456.492,611.672 455.5,611.5 Z"/></g>
<g><path style="opacity:0.012" fill="#2275fc" d="M 453.5,612.5 C 453.5,612.167 453.5,611.833 453.5,611.5C 454.167,611.5 454.833,611.5 455.5,611.5C 455.158,612.338 454.492,612.672 453.5,612.5 Z"/></g>
<g><path style="opacity:0.012" fill="#28bdfc" d="M 451.5,613.5 C 451.5,613.167 451.5,612.833 451.5,612.5C 452.167,612.5 452.833,612.5 453.5,612.5C 453.158,613.338 452.492,613.672 451.5,613.5 Z"/></g>
<g><path style="opacity:0.012" fill="#00deff" d="M 195.5,616.5 C 196.833,617.167 196.833,617.167 195.5,616.5 Z"/></g>
<g><path style="opacity:0.008" fill="#25a2a2" d="M 441.5,617.5 C 441.5,617.167 441.5,616.833 441.5,616.5C 444.167,616.833 444.167,617.167 441.5,617.5 Z"/></g>
<g><path style="opacity:0.016" fill="#28abef" d="M 204.5,620.5 C 205.5,620.5 206.5,620.5 207.5,620.5C 207.842,621.338 208.508,621.672 209.5,621.5C 207.662,622.678 205.995,622.345 204.5,620.5 Z"/></g>
<g><path style="opacity:0.012" fill="#1acdff" d="M 426.5,623.5 C 426.5,623.167 426.5,622.833 426.5,622.5C 427.5,622.5 428.5,622.5 429.5,622.5C 428.791,623.404 427.791,623.737 426.5,623.5 Z"/></g>
<g><path style="opacity:0.006" fill="#22e4ff" d="M 215.5,623.5 C 214.749,624.573 213.749,624.74 212.5,624C 213.448,623.517 214.448,623.351 215.5,623.5 Z"/></g>
<g><path style="opacity:0.006" fill="#22e4ff" d="M 423.5,623.5 C 424.5,623.5 425.5,623.5 426.5,623.5C 425.5,624.833 424.5,624.833 423.5,623.5 Z"/></g>
<g><path style="opacity:0.008" fill="#1effbd" d="M 420.5,625.5 C 420.5,625.167 420.5,624.833 420.5,624.5C 423.167,624.833 423.167,625.167 420.5,625.5 Z"/></g>
<g><path style="opacity:0.008" fill="#29a6ff" d="M 246.5,632.5 C 245.749,633.573 244.749,633.74 243.5,633C 244.448,632.517 245.448,632.351 246.5,632.5 Z"/></g>
<g><path style="opacity:0.008" fill="#4da1ff" d="M 392.5,632.5 C 393.552,632.351 394.552,632.517 395.5,633C 394.251,633.74 393.251,633.573 392.5,632.5 Z"/></g>
</svg>
